# xmcd CD database file
#
# Track frame offsets:
#	150
#	15123
#	37703
#	60259
#	83143
#	110464
#	138249
#	159270
#	180155
#	204428
#	230188
#	253649
#	288994
#
# Disc length: 4103 seconds
#
# Revision: 0
# Processed by: cddbd v1.5.1PL0 Copyright (c) Steve Scherf et al.
# Submitted via: CDex 1.51
#
DISCID=9310050d
DTITLE=Kurt Brunus - Norny and Saxy
DYEAR=2004
DGENRE=Jazz
TTITLE0=Kurt Brunus - Horny and Saxy - 01 - Sun Rise
TTITLE1=Kurt Brunus - Horny and Saxy - 02 - Dreams
TTITLE2=Kurt Brunus - Horny and Saxy - 03 - Warm Winter Night
TTITLE3=Kurt Brunus - Horny and Saxy - 04 - Sunset in St. Thomas
TTITLE4=Kurt Brunus - Horny and Saxy - 05 - Horny and Saxy
TTITLE5=Kurt Brunus - Horny and Saxy - 06 - Sax Song
TTITLE6=Kurt Brunus - Horny and Saxy - 07 - 11-Heaven
TTITLE7=Kurt Brunus - Horny and Saxy - 08 - Groovin' On
TTITLE8=Kurt Brunus - Horny and Saxy - 09 - My Philosophy
TTITLE9=Kurt Brunus - Horny and Saxy - 10 - K-Groove
TTITLE10=Kurt Brunus - Horny and Saxy - 11 - Come Again
TTITLE11=Kurt Brunus - Horny and Saxy - 12 - Groovin' On (LONG EXT. VERSION)
TTITLE12=Kurt Brunus - Horny and Saxy - 13 - My Philosophy (REMIX)
EXTD=YEAR: 2004
EXTT0=
EXTT1=
EXTT2=
EXTT3=
EXTT4=
EXTT5=
EXTT6=
EXTT7=
EXTT8=
EXTT9=
EXTT10=
EXTT11=
EXTT12=
PLAYORDER=
